<mxfile host="app.diagrams.net" modified="2022-01-15T04:55:05.951Z" agent="5.0 (Windows NT 10.0; Win64; x64) AppleWebKit/537.36 (KHTML, like Gecko) Chrome/97.0.4692.71 Safari/537.36" etag="pe2kB6IJHGvDR8FgV8xY" version="16.2.4" type="github">
  <diagram id="ZxHcsco9b7L7-rvQ7Xql" name="Page-1">
    <mxGraphModel dx="2115" dy="1146" grid="1" gridSize="10" guides="1" tooltips="1" connect="1" arrows="1" fold="1" page="1" pageScale="1" pageWidth="827" pageHeight="1169" math="0" shadow="0">
      <root>
        <mxCell id="84KTpsVSsy3dv5a97gq0-0" />
        <mxCell id="84KTpsVSsy3dv5a97gq0-1" parent="84KTpsVSsy3dv5a97gq0-0" />
        <mxCell id="jlc7M-yRpXKQTq9MkuZx-2" value="" style="edgeStyle=orthogonalEdgeStyle;rounded=0;html=1;jettySize=auto;orthogonalLoop=1;plain-blue;endArrow=none;endFill=0;strokeWidth=4;strokeColor=#000000;sketch=1;" parent="84KTpsVSsy3dv5a97gq0-1" source="jlc7M-yRpXKQTq9MkuZx-4" target="jlc7M-yRpXKQTq9MkuZx-6" edge="1">
          <mxGeometry x="1136.75" y="265" as="geometry" />
        </mxCell>
        <mxCell id="jlc7M-yRpXKQTq9MkuZx-3" style="edgeStyle=orthogonalEdgeStyle;curved=1;rounded=0;html=1;exitX=1;exitY=0.5;exitPerimeter=0;entryX=0;entryY=0.5;entryPerimeter=0;endArrow=none;endFill=0;jettySize=auto;orthogonalLoop=1;strokeWidth=4;fontSize=15;sketch=1;" parent="84KTpsVSsy3dv5a97gq0-1" source="jlc7M-yRpXKQTq9MkuZx-4" target="jlc7M-yRpXKQTq9MkuZx-11" edge="1">
          <mxGeometry relative="1" as="geometry" />
        </mxCell>
        <mxCell id="jlc7M-yRpXKQTq9MkuZx-4" value="" style="verticalLabelPosition=bottom;verticalAlign=top;html=1;strokeWidth=4;shape=mxgraph.flowchart.on-page_reference;plain-blue;gradientColor=none;fillColor=#B5E3Fe;strokeColor=#000000;" parent="84KTpsVSsy3dv5a97gq0-1" vertex="1">
          <mxGeometry x="1106.75" y="250" width="30" height="30" as="geometry" />
        </mxCell>
        <mxCell id="jlc7M-yRpXKQTq9MkuZx-5" value="" style="edgeStyle=orthogonalEdgeStyle;curved=1;rounded=0;orthogonalLoop=1;jettySize=auto;html=1;endArrow=none;endFill=0;strokeWidth=4;fontFamily=Courier New;fontSize=16;" parent="84KTpsVSsy3dv5a97gq0-1" source="jlc7M-yRpXKQTq9MkuZx-6" edge="1">
          <mxGeometry relative="1" as="geometry">
            <mxPoint x="1426" y="265" as="targetPoint" />
          </mxGeometry>
        </mxCell>
        <mxCell id="EWgvjv6-9Xqlrc1IxS9v-5" style="edgeStyle=none;rounded=0;orthogonalLoop=1;jettySize=auto;html=1;exitX=0.145;exitY=0.145;exitDx=0;exitDy=0;exitPerimeter=0;entryX=0.8;entryY=0.733;entryDx=0;entryDy=0;entryPerimeter=0;dashed=1;fontColor=#000000;endArrow=none;endFill=0;" edge="1" parent="84KTpsVSsy3dv5a97gq0-1" source="jlc7M-yRpXKQTq9MkuZx-6" target="EWgvjv6-9Xqlrc1IxS9v-2">
          <mxGeometry relative="1" as="geometry" />
        </mxCell>
        <mxCell id="jlc7M-yRpXKQTq9MkuZx-6" value="" style="verticalLabelPosition=bottom;verticalAlign=top;html=1;strokeWidth=4;shape=mxgraph.flowchart.on-page_reference;plain-blue;gradientColor=none;strokeColor=#000000;" parent="84KTpsVSsy3dv5a97gq0-1" vertex="1">
          <mxGeometry x="1345" y="250" width="30" height="30" as="geometry" />
        </mxCell>
        <mxCell id="jlc7M-yRpXKQTq9MkuZx-7" value="" style="edgeStyle=orthogonalEdgeStyle;curved=1;rounded=0;orthogonalLoop=1;jettySize=auto;html=1;endArrow=openThin;endFill=0;strokeWidth=4;fontFamily=Courier New;fontSize=16;startArrow=none;startFill=0;sketch=1;" parent="84KTpsVSsy3dv5a97gq0-1" edge="1">
          <mxGeometry relative="1" as="geometry">
            <mxPoint x="1375" y="264.5" as="sourcePoint" />
            <mxPoint x="1711.62" y="265" as="targetPoint" />
            <Array as="points">
              <mxPoint x="1512.25" y="265" />
              <mxPoint x="1512.25" y="265" />
            </Array>
          </mxGeometry>
        </mxCell>
        <mxCell id="jlc7M-yRpXKQTq9MkuZx-8" value="" style="edgeStyle=orthogonalEdgeStyle;rounded=0;html=1;jettySize=auto;orthogonalLoop=1;strokeWidth=4;endArrow=none;endFill=0;sketch=1;" parent="84KTpsVSsy3dv5a97gq0-1" target="jlc7M-yRpXKQTq9MkuZx-4" edge="1">
          <mxGeometry x="1036.75" y="265" as="geometry">
            <mxPoint x="992.25" y="265" as="sourcePoint" />
          </mxGeometry>
        </mxCell>
        <mxCell id="jlc7M-yRpXKQTq9MkuZx-10" style="edgeStyle=orthogonalEdgeStyle;curved=1;rounded=0;html=1;exitX=1;exitY=0.5;exitPerimeter=0;entryX=0;entryY=0.5;entryPerimeter=0;endArrow=none;endFill=0;jettySize=auto;orthogonalLoop=1;strokeWidth=4;fontSize=15;sketch=1;" parent="84KTpsVSsy3dv5a97gq0-1" source="jlc7M-yRpXKQTq9MkuZx-11" edge="1">
          <mxGeometry relative="1" as="geometry">
            <mxPoint x="1251.75" y="345" as="targetPoint" />
          </mxGeometry>
        </mxCell>
        <mxCell id="jlc7M-yRpXKQTq9MkuZx-11" value="" style="verticalLabelPosition=bottom;verticalAlign=top;html=1;strokeWidth=4;shape=mxgraph.flowchart.on-page_reference;plain-purple;gradientColor=none;strokeColor=#000000;fillColor=#D5E8D4;" parent="84KTpsVSsy3dv5a97gq0-1" vertex="1">
          <mxGeometry x="1179.75" y="330" width="30" height="30" as="geometry" />
        </mxCell>
        <mxCell id="jlc7M-yRpXKQTq9MkuZx-12" style="edgeStyle=orthogonalEdgeStyle;curved=1;rounded=0;html=1;entryX=0;entryY=0.5;entryPerimeter=0;endArrow=none;endFill=0;jettySize=auto;orthogonalLoop=1;strokeWidth=4;fontSize=15;sketch=1;" parent="84KTpsVSsy3dv5a97gq0-1" target="jlc7M-yRpXKQTq9MkuZx-6" edge="1">
          <mxGeometry relative="1" as="geometry">
            <mxPoint x="1284.25" y="345" as="sourcePoint" />
          </mxGeometry>
        </mxCell>
        <mxCell id="jlc7M-yRpXKQTq9MkuZx-17" value="&lt;b&gt;M&lt;/b&gt;" style="whiteSpace=wrap;html=1;verticalAlign=top;fillColor=#D5E8D4;strokeColor=#000000;strokeWidth=4;gradientColor=none;" parent="84KTpsVSsy3dv5a97gq0-1" vertex="1">
          <mxGeometry x="1253.75" y="330" width="30" height="30" as="geometry" />
        </mxCell>
        <mxCell id="jlc7M-yRpXKQTq9MkuZx-20" value="&lt;div&gt;&lt;b&gt;&lt;font style=&quot;font-size: 13px&quot;&gt;M&lt;/font&gt;&lt;/b&gt;&lt;/div&gt;" style="whiteSpace=wrap;html=1;verticalAlign=top;fillColor=#DAE8FC;strokeColor=#000000;strokeWidth=4;gradientColor=none;align=center;" parent="84KTpsVSsy3dv5a97gq0-1" vertex="1">
          <mxGeometry x="1426" y="250" width="30" height="30" as="geometry" />
        </mxCell>
        <mxCell id="jlc7M-yRpXKQTq9MkuZx-21" value="" style="edgeStyle=orthogonalEdgeStyle;curved=1;rounded=0;orthogonalLoop=1;jettySize=auto;html=1;endArrow=none;endFill=0;strokeWidth=4;fontFamily=Courier New;fontSize=16;exitX=0.5;exitY=0;exitDx=0;exitDy=0;sketch=1;" parent="84KTpsVSsy3dv5a97gq0-1" source="jlc7M-yRpXKQTq9MkuZx-20" edge="1">
          <mxGeometry relative="1" as="geometry">
            <mxPoint x="1476" y="220" as="sourcePoint" />
            <mxPoint x="1514.25" y="140" as="targetPoint" />
          </mxGeometry>
        </mxCell>
        <mxCell id="EWgvjv6-9Xqlrc1IxS9v-1" style="rounded=0;orthogonalLoop=1;jettySize=auto;html=1;exitX=1;exitY=0.5;exitDx=0;exitDy=0;exitPerimeter=0;entryX=0.045;entryY=0.5;entryDx=0;entryDy=0;entryPerimeter=0;dashed=1;endArrow=none;endFill=0;" edge="1" parent="84KTpsVSsy3dv5a97gq0-1" source="jlc7M-yRpXKQTq9MkuZx-22" target="EWgvjv6-9Xqlrc1IxS9v-0">
          <mxGeometry relative="1" as="geometry" />
        </mxCell>
        <mxCell id="jlc7M-yRpXKQTq9MkuZx-22" value="" style="verticalLabelPosition=bottom;verticalAlign=top;html=1;strokeWidth=4;shape=mxgraph.flowchart.on-page_reference;strokeColor=#2D7600;fillColor=#60a917;fontColor=#ffffff;" parent="84KTpsVSsy3dv5a97gq0-1" vertex="1">
          <mxGeometry x="1499" y="110" width="30" height="30" as="geometry" />
        </mxCell>
        <mxCell id="jlc7M-yRpXKQTq9MkuZx-42" value="&lt;font style=&quot;font-size: 17px&quot;&gt;master&lt;/font&gt;" style="text;html=1;strokeColor=none;fillColor=none;align=center;verticalAlign=middle;whiteSpace=wrap;overflow=hidden;fontSize=14;fontStyle=1;fontFamily=Courier New;" parent="84KTpsVSsy3dv5a97gq0-1" vertex="1">
          <mxGeometry x="870" y="250" width="70" height="20" as="geometry" />
        </mxCell>
        <mxCell id="jlc7M-yRpXKQTq9MkuZx-43" value="&lt;font style=&quot;font-size: 17px&quot;&gt;development&lt;/font&gt;" style="text;html=1;strokeColor=none;fillColor=none;align=center;verticalAlign=middle;whiteSpace=wrap;overflow=hidden;fontSize=14;fontStyle=1;fontFamily=Courier New;" parent="84KTpsVSsy3dv5a97gq0-1" vertex="1">
          <mxGeometry x="870" y="325" width="121.62" height="20" as="geometry" />
        </mxCell>
        <mxCell id="jlc7M-yRpXKQTq9MkuZx-44" value="&lt;font style=&quot;font-size: 17px&quot;&gt;release&lt;/font&gt;" style="text;html=1;strokeColor=none;fillColor=none;align=center;verticalAlign=middle;whiteSpace=wrap;overflow=hidden;fontSize=14;fontStyle=1;fontFamily=Courier New;" parent="84KTpsVSsy3dv5a97gq0-1" vertex="1">
          <mxGeometry x="880" y="110" width="81.62" height="20" as="geometry" />
        </mxCell>
        <mxCell id="jlc7M-yRpXKQTq9MkuZx-47" value="&lt;font style=&quot;font-size: 15px&quot;&gt;New development start&lt;/font&gt;" style="shape=callout;whiteSpace=wrap;html=1;perimeter=calloutPerimeter;fontSize=16;position2=0.1;rotation=0;base=13;size=40;position=0.26;snapToPoint=0;rounded=0;shadow=0;sketch=1;direction=west;" parent="84KTpsVSsy3dv5a97gq0-1" vertex="1">
          <mxGeometry x="1010.87" y="310" width="163" height="60" as="geometry" />
        </mxCell>
        <mxCell id="jlc7M-yRpXKQTq9MkuZx-49" value="&lt;font style=&quot;font-size: 14px&quot;&gt;UAT Start&lt;/font&gt;" style="shape=callout;whiteSpace=wrap;html=1;perimeter=calloutPerimeter;fontSize=16;position2=1;rotation=0;base=11;size=30;position=0.61;snapToPoint=0;rounded=0;shadow=0;sketch=1;direction=west;arcSize=15;" parent="84KTpsVSsy3dv5a97gq0-1" vertex="1">
          <mxGeometry x="1315" y="310" width="90" height="50" as="geometry" />
        </mxCell>
        <mxCell id="jlc7M-yRpXKQTq9MkuZx-50" value="&lt;font style=&quot;font-size: 14px&quot;&gt;Prod Impl.&lt;/font&gt;" style="shape=callout;whiteSpace=wrap;html=1;perimeter=calloutPerimeter;fontSize=16;position2=0.94;rotation=0;base=11;size=50;position=0.56;snapToPoint=0;rounded=0;shadow=0;sketch=1;direction=east;arcSize=15;" parent="84KTpsVSsy3dv5a97gq0-1" vertex="1">
          <mxGeometry x="1360" y="120" width="109" height="75" as="geometry" />
        </mxCell>
        <mxCell id="jlc7M-yRpXKQTq9MkuZx-60" style="rounded=0;sketch=1;orthogonalLoop=1;jettySize=auto;html=1;entryX=0.5;entryY=1;entryDx=0;entryDy=0;entryPerimeter=0;fontSize=15;endArrow=none;endFill=0;dashed=1;" parent="84KTpsVSsy3dv5a97gq0-1" source="jlc7M-yRpXKQTq9MkuZx-54" target="jlc7M-yRpXKQTq9MkuZx-11" edge="1">
          <mxGeometry relative="1" as="geometry" />
        </mxCell>
        <mxCell id="jlc7M-yRpXKQTq9MkuZx-54" value="&lt;span style=&quot;font-size: 16px&quot;&gt;feature/Dev20220117_LoanPayments&lt;/span&gt;" style="text;html=1;strokeColor=#82b366;fillColor=#d5e8d4;align=center;verticalAlign=middle;whiteSpace=wrap;overflow=hidden;rounded=0;shadow=0;sketch=1;fontSize=15;" parent="84KTpsVSsy3dv5a97gq0-1" vertex="1">
          <mxGeometry x="1025" y="405" width="290" height="20" as="geometry" />
        </mxCell>
        <mxCell id="Yfrm37MvhDvbOV5HHXXn-0" value="&lt;span style=&quot;text-align: center ; background-color: rgb(248 , 249 , 250)&quot;&gt;UAT20220117_LoanPayments&lt;/span&gt;" style="shape=image;html=1;verticalAlign=middle;verticalLabelPosition=middle;labelBackgroundColor=#ffffff;imageAspect=0;aspect=fixed;image=https://cdn1.iconfinder.com/data/icons/32-soft-media-icons--Vol-2/33/tag.png;rounded=0;shadow=0;sketch=1;fontSize=13;fillColor=none;gradientColor=none;direction=east;rotation=0;textDirection=ltr;labelPosition=right;align=left;" parent="84KTpsVSsy3dv5a97gq0-1" vertex="1">
          <mxGeometry x="1345" y="280" width="20" height="20" as="geometry" />
        </mxCell>
        <mxCell id="Yfrm37MvhDvbOV5HHXXn-1" value="&lt;span style=&quot;text-align: center ; background-color: rgb(248 , 249 , 250)&quot;&gt;Rel20220117_LoanPayments&lt;/span&gt;" style="shape=image;html=1;verticalAlign=middle;verticalLabelPosition=middle;labelBackgroundColor=#ffffff;imageAspect=0;aspect=fixed;image=https://cdn1.iconfinder.com/data/icons/32-soft-media-icons--Vol-2/33/tag.png;rounded=0;shadow=0;sketch=1;fontSize=13;fillColor=none;gradientColor=none;direction=east;rotation=0;textDirection=ltr;labelPosition=right;align=left;" parent="84KTpsVSsy3dv5a97gq0-1" vertex="1">
          <mxGeometry x="1469" y="195" width="20" height="20" as="geometry" />
        </mxCell>
        <mxCell id="Yfrm37MvhDvbOV5HHXXn-2" value="&lt;span style=&quot;font-size: 16px&quot;&gt;release/Rel20220117_LoanPayments&lt;/span&gt;" style="text;html=1;strokeColor=#82b366;fillColor=#B3E8B3;align=center;verticalAlign=middle;whiteSpace=wrap;overflow=hidden;rounded=0;shadow=0;sketch=1;fontSize=15;" parent="84KTpsVSsy3dv5a97gq0-1" vertex="1">
          <mxGeometry x="1391.62" y="40" width="290" height="20" as="geometry" />
        </mxCell>
        <mxCell id="Yfrm37MvhDvbOV5HHXXn-3" style="rounded=0;sketch=1;orthogonalLoop=1;jettySize=auto;html=1;fontSize=15;endArrow=none;endFill=0;dashed=1;exitX=0.5;exitY=0;exitDx=0;exitDy=0;exitPerimeter=0;" parent="84KTpsVSsy3dv5a97gq0-1" source="jlc7M-yRpXKQTq9MkuZx-22" target="Yfrm37MvhDvbOV5HHXXn-2" edge="1">
          <mxGeometry relative="1" as="geometry">
            <mxPoint x="1519" y="105" as="sourcePoint" />
            <mxPoint x="1539.25" y="60" as="targetPoint" />
          </mxGeometry>
        </mxCell>
        <mxCell id="EWgvjv6-9Xqlrc1IxS9v-0" value="&lt;font color=&quot;#000000&quot;&gt;Prod Deployment&lt;/font&gt;" style="sketch=0;pointerEvents=1;shadow=0;dashed=0;html=1;strokeColor=#FFFFFF;labelPosition=right;verticalLabelPosition=middle;verticalAlign=middle;align=left;fillColor=#008a00;shape=mxgraph.mscae.intune.client_software;fontColor=#ffffff;" vertex="1" parent="84KTpsVSsy3dv5a97gq0-1">
          <mxGeometry x="1570" y="110" width="30" height="30" as="geometry" />
        </mxCell>
        <mxCell id="EWgvjv6-9Xqlrc1IxS9v-2" value="&lt;font color=&quot;#000000&quot;&gt;UAT Deployment&lt;/font&gt;" style="sketch=0;pointerEvents=1;shadow=0;dashed=0;html=1;strokeColor=#FFFFFF;labelPosition=right;verticalLabelPosition=middle;verticalAlign=middle;align=left;fillColor=#008a00;shape=mxgraph.mscae.intune.client_software;fontColor=#ffffff;" vertex="1" parent="84KTpsVSsy3dv5a97gq0-1">
          <mxGeometry x="1300" y="195" width="30" height="30" as="geometry" />
        </mxCell>
      </root>
    </mxGraphModel>
  </diagram>
</mxfile>
